<?xml version="1.0" encoding="UTF-8" ?>
<!DOCTYPE svg PUBLIC "-//W3C//DTD SVG 1.1//EN" "http://www.w3.org/Graphics/SVG/1.1/DTD/svg11.dtd">
<svg width="2529pt" height="406pt" viewBox="0 0 2529 406" version="1.1" xmlns="http://www.w3.org/2000/svg">
<g id="#fdfdfdfd">
<path fill="#fdfdfd" opacity="1.00" d=" M 993.39 0.00 L 1005.54 0.00 C 1020.39 3.65 1030.80 16.27 1037.98 29.08 C 1045.34 19.64 1050.76 8.29 1060.35 0.79 C 1061.56 27.84 1060.81 54.93 1061.01 82.00 C 1060.85 109.69 1061.42 137.38 1060.55 165.06 C 1058.97 165.02 1057.41 164.99 1055.86 164.97 C 1052.37 131.86 1049.55 98.56 1041.99 66.06 C 1037.52 48.80 1033.53 30.30 1021.63 16.35 C 1016.13 9.59 1006.44 5.23 997.86 7.82 C 986.30 11.90 984.83 25.55 985.01 35.96 C 984.92 149.32 985.11 262.68 984.92 376.04 C 985.34 381.56 984.18 388.20 988.33 392.69 C 992.07 398.52 999.87 400.09 1006.20 398.30 C 1012.22 396.01 1016.38 390.11 1018.04 384.05 C 1019.28 376.78 1018.91 369.34 1019.13 362.01 C 1018.90 316.37 1019.04 270.73 1019.00 225.10 C 1013.77 224.94 1008.57 224.78 1003.38 224.62 C 1003.38 223.04 1003.38 219.88 1003.38 218.31 C 1028.57 218.08 1053.79 217.36 1078.99 218.26 C 1083.71 216.39 1084.99 221.03 1086.78 223.81 C 1081.51 224.35 1076.26 224.80 1071.02 225.23 C 1070.58 285.48 1071.78 345.76 1070.44 406.00 L 1067.10 406.00 C 1059.85 392.92 1055.22 378.62 1049.37 364.89 C 1039.23 381.47 1028.42 402.09 1007.47 406.00 L 993.50 406.00 C 980.48 403.33 967.85 397.05 959.51 386.47 C 947.32 371.01 940.20 352.17 935.85 333.12 C 926.43 294.18 928.11 253.74 928.00 214.00 C 928.26 175.21 926.35 136.11 932.60 97.66 C 936.64 71.81 943.98 45.76 959.06 24.05 C 966.98 12.18 979.22 2.81 993.39 0.00 Z" />
<path fill="#fdfdfd" opacity="1.00" d=" M 1163.40 0.00 L 1177.58 0.00 C 1190.67 2.40 1202.97 9.16 1211.58 19.39 C 1223.96 34.16 1231.08 52.50 1235.97 70.93 C 1248.03 120.67 1244.51 172.30 1245.00 223.00 C 1244.80 258.21 1246.77 294.01 1238.56 328.56 C 1233.96 350.02 1226.26 371.77 1211.21 388.22 C 1203.19 397.67 1191.48 403.18 1179.61 406.00 L 1165.51 406.00 C 1158.40 404.11 1151.06 402.33 1144.98 398.02 C 1129.99 389.07 1120.72 373.42 1114.41 357.62 C 1103.49 328.05 1098.18 296.51 1098.04 265.01 C 1097.84 231.68 1098.11 198.34 1097.96 165.00 C 1097.78 137.14 1098.27 109.04 1103.59 81.59 C 1107.26 61.50 1114.11 41.73 1125.96 24.94 C 1134.70 12.27 1148.33 3.16 1163.40 0.00 M 1167.44 8.50 C 1164.31 9.18 1161.65 11.31 1159.90 13.93 C 1155.44 20.70 1153.74 28.95 1153.96 36.98 C 1153.99 143.65 1154.07 250.33 1153.93 357.01 C 1154.09 368.69 1154.00 381.39 1160.34 391.69 C 1164.62 398.41 1174.76 399.90 1180.76 394.73 C 1188.32 388.57 1189.16 378.06 1189.08 369.01 C 1188.92 272.34 1189.02 175.67 1189.01 79.00 C 1188.88 63.32 1189.59 47.59 1188.23 31.95 C 1187.87 25.29 1185.52 18.83 1181.52 13.51 C 1178.35 9.27 1172.68 6.92 1167.44 8.50 Z" />
<path fill="#fdfdfd" opacity="1.00" d=" M 1478.40 0.00 L 1492.58 0.00 C 1505.67 2.40 1517.97 9.16 1526.58 19.39 C 1538.96 34.16 1546.08 52.50 1550.97 70.93 C 1563.03 120.67 1559.51 172.30 1560.00 223.00 C 1559.80 258.21 1561.77 294.01 1553.56 328.56 C 1548.96 350.02 1541.26 371.77 1526.21 388.22 C 1518.19 397.67 1506.48 403.18 1494.61 406.00 L 1480.51 406.00 C 1467.36 403.55 1455.19 396.71 1446.39 386.64 C 1436.31 375.13 1429.97 360.87 1425.56 346.35 C 1417.22 320.09 1413.17 292.55 1413.04 265.01 C 1412.85 230.01 1413.11 195.00 1412.95 160.00 C 1412.80 131.84 1413.76 103.44 1419.75 75.82 C 1423.56 57.74 1430.29 40.12 1440.96 24.94 C 1449.70 12.27 1463.33 3.16 1478.40 0.00 M 1482.44 8.50 C 1479.31 9.18 1476.65 11.31 1474.90 13.93 C 1470.44 20.70 1468.74 28.95 1468.96 36.98 C 1468.99 143.65 1469.07 250.33 1468.93 357.01 C 1469.09 368.69 1469.00 381.39 1475.34 391.69 C 1479.62 398.41 1489.76 399.90 1495.76 394.73 C 1503.32 388.57 1504.16 378.06 1504.08 369.01 C 1503.91 262.34 1504.03 155.66 1504.01 48.99 C 1503.43 37.70 1504.58 25.07 1497.74 15.25 C 1494.76 10.07 1488.46 6.65 1482.44 8.50 Z" />
<path fill="#fdfdfd" opacity="1.00" d=" M 2038.39 0.00 L 2050.50 0.00 C 2062.13 2.32 2071.20 10.61 2079.47 18.62 C 2080.55 19.41 2081.76 21.12 2083.27 20.18 C 2093.87 15.19 2102.25 6.79 2111.66 0.00 L 2114.02 0.00 C 2113.98 45.34 2113.92 90.68 2114.16 136.02 C 2113.57 142.18 2114.81 148.93 2112.01 154.69 C 2107.26 153.63 2107.41 147.87 2106.67 144.20 C 2102.12 109.92 2097.20 75.31 2085.32 42.68 C 2080.72 31.83 2075.62 20.35 2065.91 13.13 C 2061.05 8.69 2053.92 7.08 2047.59 8.51 C 2040.71 10.81 2034.22 15.54 2031.33 22.35 C 2026.25 35.36 2026.34 49.76 2029.73 63.16 C 2039.06 101.24 2057.62 136.14 2075.00 171.00 C 2093.24 208.10 2113.23 245.13 2122.22 285.83 C 2128.46 315.67 2130.05 349.29 2113.05 376.04 C 2103.65 391.77 2087.37 402.42 2069.53 406.00 L 2054.38 406.00 C 2038.54 403.03 2025.42 392.15 2016.85 378.84 C 2006.20 387.05 1997.24 397.28 1986.20 404.97 C 1985.10 394.69 1984.98 384.33 1984.92 374.00 C 1984.98 339.00 1985.08 304.00 1984.90 269.00 C 1984.90 255.85 1984.80 242.64 1986.49 229.57 C 1988.17 231.42 1990.41 233.05 1991.14 235.56 C 1992.69 250.31 1992.09 265.22 1994.03 279.94 C 1996.78 300.89 2000.69 321.77 2007.07 341.95 C 2012.47 358.26 2018.89 375.26 2031.74 387.27 C 2039.91 395.31 2053.98 396.20 2063.03 389.05 C 2076.59 378.56 2080.11 360.19 2078.93 343.98 C 2078.74 321.07 2071.74 298.95 2063.00 278.00 C 2048.34 242.40 2030.46 208.27 2013.12 173.95 C 2002.30 150.73 1990.03 127.61 1986.07 101.98 C 1983.91 82.77 1984.25 62.85 1990.46 44.37 C 1997.84 22.96 2015.75 4.55 2038.39 0.00 Z" />
<path fill="#fdfdfd" opacity="1.00" d=" M 0.00 5.12 C 19.61 3.29 39.34 4.08 59.00 3.84 C 67.63 4.00 76.40 3.49 84.92 5.04 C 85.59 6.22 86.01 7.52 86.33 8.83 C 82.94 10.85 78.89 11.28 75.14 12.18 C 74.82 72.12 75.09 132.06 75.00 192.00 C 86.33 192.01 97.67 191.97 109.00 192.01 C 108.99 131.72 109.02 71.43 108.99 11.15 C 104.59 10.87 100.20 10.60 95.81 10.32 C 95.44 8.58 95.08 6.85 94.72 5.12 C 109.74 3.40 124.91 4.06 140.00 3.90 C 153.77 3.97 167.62 3.28 181.33 4.90 C 181.83 6.55 181.88 8.38 181.11 9.95 C 175.53 11.30 169.68 11.02 164.02 11.66 C 163.99 139.37 164.00 267.07 164.01 394.77 C 170.56 395.15 177.11 395.55 183.65 396.14 C 182.38 398.12 181.81 401.66 178.95 401.74 C 153.99 402.47 128.97 402.30 104.01 401.75 C 99.32 403.62 98.08 399.00 96.22 396.27 C 100.47 395.72 104.73 395.21 108.99 394.73 C 109.01 329.15 109.00 263.57 109.00 197.99 C 97.67 198.01 86.33 198.03 75.00 197.98 C 75.01 263.57 74.97 329.16 75.02 394.76 C 79.94 395.20 84.87 395.67 89.79 396.21 C 87.95 398.97 86.71 403.59 81.99 401.76 C 54.68 402.35 27.28 402.67 0.00 400.87 L 0.00 398.87 C 0.44 397.49 0.91 396.13 1.38 394.77 C 7.92 394.86 14.46 394.95 21.00 395.03 C 21.00 267.21 21.01 139.39 20.99 11.57 C 14.09 10.59 6.26 12.42 0.00 8.62 L 0.00 5.12 Z" />
<path fill="#fdfdfd" opacity="1.00" d=" M 362.96 4.80 C 387.21 3.28 411.52 4.20 435.80 4.05 C 453.38 100.16 470.81 196.29 488.62 292.35 C 489.57 208.91 488.60 125.45 489.12 42.00 C 489.07 33.53 489.87 23.17 483.49 16.50 C 478.06 11.65 470.20 11.88 463.46 10.54 C 463.66 8.33 463.97 6.14 464.30 3.96 C 481.50 4.05 498.70 3.92 515.90 4.07 C 516.30 5.39 516.72 6.71 517.13 8.04 C 512.98 10.28 508.64 12.20 504.62 14.68 C 499.13 18.56 497.10 25.47 496.68 31.84 C 495.51 45.53 496.04 59.28 495.98 73.00 C 496.03 182.67 495.98 292.33 496.00 402.00 C 482.33 402.01 468.67 402.00 455.01 401.97 C 433.10 281.87 411.65 161.68 389.36 41.65 C 388.46 148.43 389.37 255.22 388.90 362.00 C 388.97 371.48 388.22 382.43 394.80 390.19 C 399.89 394.98 407.67 393.84 414.02 395.24 C 414.47 397.27 414.89 399.30 415.29 401.35 C 397.15 402.34 378.98 402.20 360.84 401.68 C 363.45 393.41 374.18 393.20 378.43 386.41 C 381.91 377.05 381.94 366.86 382.07 357.01 C 381.91 241.76 382.04 126.51 382.00 11.26 C 375.63 9.51 363.30 15.50 362.96 4.80 Z" />
<path fill="#fdfdfd" opacity="1.00" d=" M 526.96 4.80 C 551.21 3.28 575.52 4.20 599.80 4.05 C 617.38 100.16 634.81 196.29 652.62 292.35 C 653.57 208.91 652.60 125.45 653.12 42.00 C 653.07 33.53 653.87 23.17 647.49 16.50 C 642.06 11.65 634.20 11.88 627.46 10.54 C 627.66 8.33 627.97 6.14 628.30 3.96 C 645.50 4.05 662.69 3.92 679.90 4.07 C 680.30 5.39 680.71 6.71 681.13 8.04 C 676.98 10.28 672.64 12.20 668.62 14.68 C 663.13 18.56 661.10 25.47 660.68 31.84 C 659.51 45.53 660.04 59.28 659.98 73.00 C 660.03 182.67 659.98 292.33 660.00 402.00 C 646.33 402.01 632.67 402.00 619.01 401.97 C 597.10 281.87 575.65 161.68 553.36 41.65 C 552.46 148.43 553.37 255.22 552.90 362.00 C 552.97 371.48 552.22 382.43 558.80 390.19 C 563.89 394.98 571.67 393.84 578.02 395.24 C 578.47 397.27 578.88 399.30 579.29 401.35 C 561.15 402.34 542.98 402.20 524.84 401.68 C 527.45 393.41 538.18 393.20 542.43 386.41 C 545.91 377.05 545.94 366.86 546.07 357.01 C 545.91 241.76 546.04 126.51 546.00 11.26 C 539.63 9.51 527.30 15.50 526.96 4.80 Z" />
<path fill="#fdfdfd" opacity="1.00" d=" M 1246.07 3.89 C 1276.57 4.41 1307.10 3.39 1337.60 4.27 C 1338.21 5.75 1339.43 8.70 1340.04 10.17 C 1332.68 10.62 1325.32 10.91 1318.00 11.28 C 1318.00 139.29 1318.00 267.29 1318.00 395.30 C 1327.40 395.00 1337.42 395.66 1346.02 391.04 C 1354.33 387.25 1359.03 378.77 1363.06 371.04 C 1381.82 332.72 1386.90 289.79 1392.03 247.96 C 1390.95 243.87 1394.33 241.79 1396.91 239.84 C 1398.87 262.16 1398.01 284.60 1397.69 306.97 C 1396.02 338.62 1398.16 370.36 1395.88 401.99 C 1352.58 402.03 1309.29 401.92 1266.00 402.09 C 1258.92 401.98 1251.80 402.22 1244.83 401.11 L 1244.82 395.93 C 1251.14 394.95 1257.59 395.00 1264.00 394.82 C 1264.00 266.98 1264.00 139.15 1264.00 11.31 C 1258.42 10.98 1252.78 11.45 1247.30 10.55 C 1244.43 9.37 1245.80 6.19 1246.07 3.89 Z" />
<path fill="#fdfdfd" opacity="1.00" d=" M 1558.73 4.65 C 1582.47 3.46 1606.24 4.14 1630.00 3.95 C 1648.43 3.34 1667.52 7.49 1682.73 18.28 C 1693.19 25.70 1700.56 36.58 1705.90 48.08 C 1712.98 63.76 1716.25 80.80 1719.28 97.63 C 1726.39 140.04 1723.38 183.21 1724.01 226.00 C 1724.41 255.26 1724.31 284.79 1718.65 313.62 C 1715.04 331.32 1710.96 349.26 1702.23 365.24 C 1696.70 375.24 1688.90 384.19 1678.97 389.99 C 1665.57 399.11 1648.89 401.58 1633.02 401.90 C 1613.00 402.21 1592.99 401.95 1572.99 402.12 C 1568.25 401.79 1563.42 402.63 1558.89 401.09 L 1558.78 395.93 C 1565.43 394.90 1572.24 394.99 1579.00 394.86 C 1579.00 266.91 1579.00 138.96 1579.00 11.02 C 1572.61 11.00 1566.29 10.99 1559.95 10.98 C 1559.52 8.87 1559.10 6.76 1558.73 4.65 M 1634.00 10.75 C 1634.00 138.57 1633.99 266.39 1634.00 394.21 C 1641.77 393.59 1649.96 394.18 1657.37 391.34 C 1665.62 386.81 1665.82 376.27 1666.03 368.02 C 1666.02 259.68 1665.90 151.33 1666.09 42.99 C 1665.71 33.81 1666.92 23.13 1660.30 15.70 C 1653.06 9.16 1642.80 11.23 1634.00 10.75 Z" />
<path fill="#fdfdfd" opacity="1.00" d=" M 1726.06 3.89 C 1751.37 4.08 1776.68 4.04 1802.00 3.85 C 1806.93 4.13 1812.27 3.27 1817.09 4.94 L 1817.22 10.07 C 1810.83 11.04 1804.39 10.99 1798.00 11.18 C 1798.00 139.01 1798.00 266.85 1798.00 394.69 C 1803.51 395.01 1809.17 394.55 1814.70 395.45 C 1817.55 396.63 1816.18 399.80 1815.94 402.11 C 1785.36 401.88 1754.79 402.07 1724.23 401.98 C 1724.09 399.66 1724.09 397.33 1724.23 395.02 C 1730.77 395.00 1737.40 394.99 1744.00 394.99 C 1744.00 267.10 1744.00 139.21 1744.00 11.31 C 1738.41 10.98 1732.77 11.45 1727.30 10.55 C 1724.43 9.37 1725.80 6.19 1726.06 3.89 Z" />
<path fill="#fdfdfd" opacity="1.00" d=" M 1829.96 4.80 C 1854.20 3.28 1878.51 4.20 1902.80 4.05 C 1920.38 100.16 1937.81 196.29 1955.62 292.35 C 1956.56 208.91 1955.60 125.45 1956.12 42.00 C 1956.06 33.53 1956.87 23.17 1950.49 16.50 C 1945.05 11.65 1937.19 11.88 1930.46 10.54 C 1930.65 8.33 1930.96 6.14 1931.30 3.96 C 1948.49 4.05 1965.69 3.92 1982.90 4.07 C 1983.28 5.39 1983.70 6.71 1984.13 8.04 C 1977.49 11.88 1968.92 13.94 1965.92 21.90 C 1962.65 30.13 1963.43 39.35 1962.97 47.99 C 1963.03 165.99 1962.99 284.00 1963.00 402.00 C 1949.32 402.01 1935.66 402.00 1922.01 401.97 C 1900.10 281.87 1878.65 161.68 1856.36 41.65 C 1855.46 148.43 1856.37 255.22 1855.90 362.00 C 1855.96 371.48 1855.22 382.43 1861.80 390.19 C 1866.88 394.98 1874.66 393.84 1881.02 395.24 C 1881.46 397.27 1881.86 399.30 1882.29 401.35 C 1864.14 402.34 1845.98 402.20 1827.84 401.68 C 1830.45 393.41 1841.16 393.20 1845.43 386.41 C 1848.90 377.05 1848.93 366.86 1849.07 357.01 C 1848.91 241.76 1849.04 126.51 1849.00 11.26 C 1842.59 9.51 1830.30 15.50 1829.96 4.80 Z" />
<path fill="#fdfdfd" opacity="1.00" d=" M 2130.78 4.89 C 2161.35 2.75 2192.11 4.59 2222.77 4.01 C 2222.88 6.33 2222.88 8.66 2222.77 10.98 C 2216.45 11.00 2210.24 11.00 2204.00 11.01 C 2204.27 74.81 2203.43 138.62 2204.44 202.41 C 2220.22 166.47 2234.42 129.84 2249.56 93.62 C 2255.32 78.78 2262.21 64.37 2267.33 49.29 C 2270.95 38.07 2272.70 23.53 2263.60 14.39 C 2258.28 10.38 2251.09 11.06 2244.91 9.26 C 2244.98 8.49 2245.10 6.93 2245.16 6.16 C 2245.82 5.49 2246.51 4.81 2247.22 4.14 C 2270.53 4.73 2294.14 2.18 2317.31 5.33 C 2316.79 6.71 2316.36 8.10 2315.90 9.48 C 2307.16 10.27 2297.22 10.87 2291.17 18.16 C 2281.84 28.53 2277.10 42.03 2271.55 54.62 C 2261.89 77.96 2252.51 101.42 2242.62 124.66 C 2241.49 127.57 2240.04 130.70 2240.99 133.87 C 2263.40 220.84 2286.74 307.58 2309.30 394.51 C 2313.87 395.32 2319.49 393.66 2323.70 396.25 C 2324.27 398.12 2324.03 400.11 2324.03 402.04 C 2298.67 401.94 2273.32 402.02 2247.98 402.11 C 2244.50 400.64 2238.02 404.44 2236.09 400.16 C 2235.38 398.58 2235.27 396.83 2235.00 395.15 C 2241.35 395.04 2247.80 394.98 2254.22 394.93 C 2240.39 343.20 2226.40 291.51 2212.22 239.88 C 2209.55 230.81 2207.83 221.44 2204.50 212.58 C 2203.35 273.31 2204.31 334.07 2204.00 394.81 C 2210.15 395.11 2216.56 394.19 2222.71 395.41 C 2224.73 396.97 2223.91 399.85 2224.04 402.05 C 2193.27 401.64 2162.48 402.75 2131.74 401.34 C 2132.09 399.24 2132.51 397.14 2132.95 395.05 C 2138.58 395.02 2144.28 394.99 2150.00 394.98 C 2150.00 267.08 2150.00 139.18 2150.00 11.27 C 2143.62 10.74 2137.04 11.91 2130.89 10.07 L 2130.78 4.89 Z" />
<path fill="#fdfdfd" opacity="1.00" d=" M 2334.06 3.89 C 2359.37 4.08 2384.68 4.04 2410.00 3.85 C 2414.91 4.13 2420.27 3.27 2425.09 4.94 L 2425.22 10.07 C 2418.82 11.04 2412.39 10.99 2406.00 11.18 C 2406.00 139.01 2406.00 266.85 2406.00 394.69 C 2411.49 395.01 2417.16 394.55 2422.70 395.45 C 2425.54 396.63 2424.17 399.80 2423.94 402.11 C 2393.36 401.88 2362.79 402.07 2332.23 401.98 C 2332.09 399.66 2332.09 397.33 2332.23 395.02 C 2338.76 395.00 2345.40 394.99 2352.00 394.99 C 2351.99 267.10 2352.00 139.21 2352.00 11.31 C 2346.40 10.98 2340.76 11.45 2335.30 10.55 C 2332.43 9.37 2333.80 6.19 2334.06 3.89 Z" />
<path fill="#fdfdfd" opacity="1.00" d=" M 2437.06 3.89 C 2462.37 4.08 2487.68 4.04 2513.00 3.85 C 2517.91 4.13 2523.27 3.27 2528.09 4.94 L 2528.22 10.07 C 2521.82 11.04 2515.38 10.99 2509.00 11.18 C 2509.00 139.01 2509.00 266.85 2509.00 394.69 C 2514.49 395.01 2520.16 394.55 2525.70 395.45 C 2528.54 396.63 2527.17 399.80 2526.94 402.11 C 2496.36 401.88 2465.79 402.07 2435.23 401.98 C 2435.09 399.66 2435.09 397.33 2435.23 395.02 C 2441.75 395.00 2448.40 394.99 2455.00 394.99 C 2454.99 267.10 2455.00 139.21 2455.00 11.31 C 2449.39 10.98 2443.76 11.45 2438.30 10.55 C 2435.43 9.37 2436.79 6.19 2437.06 3.89 Z" />
<path fill="#fdfdfd" opacity="1.00" d=" M 260.41 10.31 C 270.22 10.05 280.05 9.99 289.88 9.99 C 305.61 138.10 321.14 266.24 336.96 394.33 C 342.45 394.90 349.44 393.57 352.92 398.98 C 351.81 399.94 350.71 400.93 349.63 401.92 C 322.19 402.06 294.76 401.99 267.32 402.00 C 267.14 399.68 267.10 397.35 267.20 395.03 C 272.16 394.99 277.14 395.00 282.10 394.97 C 279.87 369.97 277.74 344.97 274.97 320.03 C 259.02 319.98 243.08 319.99 227.13 320.02 C 225.28 334.24 223.35 348.44 221.66 362.68 C 220.79 370.79 220.44 380.28 226.11 386.91 C 229.98 392.52 237.20 393.33 243.04 395.95 C 242.98 397.23 242.92 398.52 242.87 399.82 C 242.17 400.49 241.47 401.17 240.78 401.85 C 225.51 401.89 210.23 402.52 194.97 401.90 C 192.04 401.86 191.36 398.28 189.98 396.30 C 196.70 393.00 205.92 391.82 208.99 384.01 C 213.21 375.61 214.87 366.22 216.07 356.98 C 230.73 241.41 245.76 125.88 260.41 10.31 M 253.65 112.67 C 251.96 123.18 250.68 133.76 249.31 144.32 C 242.31 200.56 234.60 256.71 227.94 312.98 C 243.30 313.01 258.66 313.01 274.02 312.98 C 268.98 263.61 264.34 214.20 259.36 164.83 C 257.64 147.42 256.52 129.93 253.65 112.67 Z" />
<path fill="#fdfdfd" opacity="1.00" d=" M 747.41 10.31 C 757.22 10.05 767.05 9.99 776.88 9.99 C 792.61 138.10 808.14 266.24 823.96 394.33 C 829.44 394.90 836.44 393.57 839.92 398.98 C 838.80 399.94 837.71 400.93 836.63 401.92 C 809.19 402.06 781.75 401.99 754.32 402.00 C 754.14 399.68 754.10 397.35 754.20 395.03 C 759.13 394.99 764.14 395.00 769.10 394.97 C 766.86 369.97 764.74 344.97 761.97 320.03 C 746.02 319.98 730.07 319.99 714.13 320.02 C 712.28 334.24 710.35 348.44 708.66 362.68 C 707.78 370.79 707.44 380.28 713.11 386.91 C 716.97 392.52 724.20 393.33 730.04 395.95 C 729.98 397.23 729.92 398.52 729.87 399.82 C 729.16 400.49 728.46 401.17 727.78 401.85 C 712.50 401.89 697.23 402.52 681.97 401.90 C 679.04 401.86 678.35 398.28 676.98 396.30 C 683.70 393.00 692.92 391.82 695.99 384.01 C 700.21 375.61 701.87 366.22 703.07 356.98 C 717.73 241.41 732.76 125.88 747.41 10.31 M 740.65 112.67 C 735.63 147.05 731.75 181.60 727.12 216.04 C 723.17 248.37 718.55 280.62 714.94 312.98 C 730.30 313.01 745.66 313.01 761.02 312.98 C 754.89 252.00 748.95 191.00 743.04 130.00 C 742.40 124.20 741.56 118.42 740.65 112.67 Z" />
</g>
</svg>
